<svg width="412" height="318" viewBox="0 0 412 318" fill="none" xmlns="http://www.w3.org/2000/svg">
<path d="M412 153.5C412 238.276 343.276 307 258.5 307C173.724 307 9 238.276 9 153.5C9 68.7243 173.724 0 258.5 0C343.276 0 412 68.7243 412 153.5Z" fill="#FCCA35"/>
<path d="M401 158C401 240.29 332.617 307 248.262 307C163.907 307 0 240.29 0 158C0 75.7096 163.907 9 248.262 9C332.617 9 401 75.7096 401 158Z" fill="#F5F6FD"/>
<g clip-path="url(#clip0)">
<path opacity="0.15" d="M374.8 255.653C374.929 264.309 368.783 272.481 358.065 279.759C346.78 287.239 330.353 293.833 310.292 298.75C304.995 300.176 299.313 301.222 293.253 302.467C292.873 302.473 292.306 302.674 291.737 302.682C287.38 303.517 282.831 304.162 278.282 304.807C272.787 305.659 267.098 306.321 261.217 306.794C257.045 307.241 252.68 307.498 248.315 307.756C245.09 307.996 241.862 308.045 238.826 308.282L238.636 308.285C236.167 308.322 233.891 308.548 231.423 308.585C230.473 308.599 229.524 308.614 228.574 308.628C224.776 308.684 220.978 308.741 217.367 308.603L217.341 306.872C211.636 306.38 205.924 305.503 200.213 304.626C193.549 303.572 187.072 302.322 180.786 301.069L180.596 301.072C175.454 300.186 170.312 299.301 164.978 298.227C164.972 297.842 164.779 297.652 164.773 297.268C159.816 295.995 155.048 294.719 150.468 293.249C150.476 293.826 150.292 294.213 150.301 294.79C140.768 292.432 131.04 289.691 121.309 286.758C121.295 285.796 121.278 284.642 121.263 283.681C115.152 281.463 109.421 279.24 104.259 277.009C103.703 277.979 103.14 278.372 102.187 278.194C100.087 277.456 98.7373 276.129 97.949 274.217C91.8319 271.615 86.6672 269.191 82.2679 267.14C81.4738 264.844 80.8697 262.544 80.8323 260.043C80.7117 251.965 86.1039 244.189 95.8782 237.309C101.515 233.185 108.867 229.42 117.363 226.022C117.93 225.821 118.684 225.425 119.251 225.224C119.441 225.222 119.628 225.026 119.628 225.026C119.628 225.026 119.818 225.024 119.815 224.831C120.571 224.628 121.135 224.234 121.892 224.031C124.347 223.032 126.994 222.223 129.641 221.414C146.087 216.166 165.78 212.024 187.587 209.582C200.103 208.241 213.385 207.273 227.058 207.069C238.262 206.902 249.282 207.122 259.931 207.925C265.823 208.222 271.339 208.716 277.048 209.401C282.184 209.901 287.132 210.597 291.891 211.295C297.793 212.169 303.507 213.238 309.034 214.502C348.289 222.958 374.535 237.957 374.8 255.653Z" fill="#1B9EFF"/>
<path d="M116.881 168.313C112.137 155.878 107.755 129.586 113.211 113.344C118.667 97.1021 123.763 69.5143 133.736 75.9066C139.712 69.0838 151.615 64.8658 159.775 77.0569C172.207 95.5329 190.478 110.651 175.011 156.094C159.545 201.536 116.881 168.313 116.881 168.313Z" fill="#1F74B1"/>
<path d="M108.345 270.791C107.015 270.811 106.351 264.472 105.951 263.131C106.178 265.629 106.109 273.71 104.259 277.009C103.703 277.979 103.139 278.372 102.187 278.194C100.087 277.456 98.7372 276.129 97.9488 274.217C95.7852 269.247 97.3794 261.528 98.4671 258.049C98.6456 257.276 98.8297 256.889 99.0139 256.501L106.4 255.044C106.4 255.044 106.8 256.385 107.018 258.306C108.031 262.523 109.084 269.433 108.345 270.791Z" fill="#E9BDA2"/>
<path d="M118.761 141.543C110.716 149.743 81.0093 195.59 97.8805 244.205C98.5853 253.237 97.135 257.876 97.135 257.876C104.184 259.31 108.348 258.286 108.348 258.286C109.792 253.262 109.634 242.683 109.634 242.683C120.157 235.023 128.174 199.503 127.501 179.89C126.635 160.087 118.761 141.543 118.761 141.543Z" fill="#1A9EFE"/>
<path d="M130.592 132.516C134.753 131.299 138.899 129.121 138.899 129.121C139.809 126.414 140.275 119.481 140.013 114.675C146.43 111.886 150.248 113.176 150.248 113.176C150.538 119.905 151.413 127.588 152.175 127.769C154.083 128.317 161.325 129.941 161.325 129.941L154.105 142.554L132.249 141.726L130.592 132.516Z" fill="#E9BDA2"/>
<path d="M193.54 302.995C189.354 302.48 185.167 301.965 180.788 301.261L180.598 301.264C175.457 300.379 170.315 299.494 164.98 298.419C164.975 298.034 164.782 297.845 164.776 297.46C160.918 280.78 156.277 262.572 153.987 261.837C153.42 262.038 152.099 275.332 150.47 293.441C150.479 294.018 150.295 294.406 150.303 294.983C140.771 292.624 131.043 289.883 121.312 286.951C121.298 285.989 121.28 284.835 121.266 283.873C121.218 267.905 121.183 252.9 121.394 241.546C121.474 234.234 121.575 228.268 121.898 224.415C122.056 222.297 122.226 220.947 122.214 220.178C122.214 220.178 124.887 221.1 129.456 221.801C139.74 223.572 159.892 224.81 183.483 214.646C184.142 220.6 185.011 227.898 185.891 235.965C188.506 258.435 191.397 286.673 193.54 302.995Z" fill="#D8C5BC"/>
<path opacity="0.4" d="M125.237 180.886C124.595 163.388 119.028 146.733 118.036 143.862C111.832 160.885 116.359 209.684 117.426 230.254C122.534 216.133 125.633 194.732 125.237 180.886Z" fill="#C46645"/>
<path d="M242.142 136.045C244.205 134.282 255.03 121.423 248.099 115.178C244.839 113.11 239.688 124.345 238.595 127.44C238.761 125.898 240.764 120.097 239.616 119.537C237.732 120.527 234.9 134.421 234.9 134.421L242.142 136.045Z" fill="#E9BDA2"/>
<path d="M139.759 123.144C141.293 124.083 142.821 124.638 144.337 124.423C146.42 124.007 148.685 123.011 150.751 121.441C150.524 118.943 150.291 116.061 150.058 113.179C150.058 113.179 146.429 111.886 139.823 114.678C140.053 117.368 140.099 120.446 139.759 123.144Z" fill="#E9BDA2"/>
<path d="M129.373 89.0542C129.474 95.7863 129.977 104.052 130.987 108.077C132 112.294 138.793 122.004 144.288 121.153C149.784 120.301 157.107 114.613 157.867 101.904C158.627 89.1945 155.122 83.4752 155.122 83.4752C155.122 83.4752 130.936 79.2191 129.373 89.0542Z" fill="#E9BDA2"/>
<path d="M134.934 130.72C139.348 133.732 151.502 133.55 155.795 128.484C165.114 129.307 171.625 132.865 174.313 134.749C177 136.633 193.81 219.301 186.447 234.995C179.083 250.688 121.353 251.55 121.172 239.433C120.991 227.315 109.72 159.377 118.381 141.548C122.058 133.413 134.934 130.72 134.934 130.72Z" fill="#1B9EFF"/>
<path d="M130.09 98.8554C129.114 97.1384 126.694 100.445 128.07 103.503C129.445 106.561 131.548 107.491 131.548 107.491L130.09 98.8554Z" fill="#E9BDA2"/>
<path d="M133.258 82.0702C139.763 85.2437 150.953 84.1146 156.408 93.2678C161.861 102.229 161.918 118.773 161.918 118.773L173.361 96.4777L156.766 79.0257L133.258 82.0702Z" fill="#1F74B1"/>
<path d="M157.804 97.672C158.727 95.9267 161.245 99.1597 159.962 102.257C158.678 105.354 156.604 106.347 156.604 106.347L157.804 97.672Z" fill="#E9BDA2"/>
<path d="M140.373 113.323C141.144 114.081 142.879 115.787 145.158 115.753C147.436 115.719 149.491 113.38 149.468 111.841C146.254 112.851 142.47 113.869 140.373 113.323Z" fill="#BA2B00"/>
<path d="M144.865 96.1337L145.23 95.1663C145.604 94.7759 145.978 94.3855 146.352 93.9952C147.29 93.2116 148.231 92.6204 149.365 92.2187C150.875 91.619 152.208 91.7914 153.364 92.9285C153.557 93.118 154.328 93.8761 153.563 93.5027C152.608 93.1322 151.27 92.575 150.326 92.9739C149.192 93.3756 148.061 93.9696 146.931 94.5637C146.364 94.7646 145.99 95.1549 145.426 95.5481C145.429 95.7405 145.055 96.1308 144.865 96.1337Z" fill="#3E2624"/>
<path d="M139.369 96.9853C139.369 96.9853 138.601 96.4196 138.598 96.2272C138.213 95.8482 137.64 95.6644 137.067 95.4806C135.922 95.1129 134.78 94.9375 133.641 94.9546C132.121 94.9772 130.993 95.7636 130.254 97.1214C130.07 97.5089 129.701 98.284 130.262 97.6985C131.011 96.9177 131.949 96.1342 133.085 95.9248C134.225 95.9078 135.557 96.0803 136.886 96.0604C137.456 96.0519 138.028 96.2358 138.601 96.4196C138.607 96.8043 139.179 96.9881 139.369 96.9853Z" fill="#3E2624"/>
<path d="M144.306 109.609C143.736 109.618 142.784 109.44 142.387 108.291C141.993 107.335 141.958 105.027 141.927 102.911C141.907 101.565 141.889 100.411 141.881 99.8336C141.878 99.6413 142.065 99.4461 142.255 99.4433C142.445 99.4404 142.637 99.6299 142.64 99.8223C142.839 100.396 142.856 101.551 142.879 103.089C142.908 105.013 142.942 107.321 143.334 108.085C143.731 109.233 144.864 108.831 144.864 108.831C145.054 108.829 145.244 108.826 145.437 109.015C145.44 109.208 145.443 109.4 145.253 109.403C144.686 109.604 144.496 109.606 144.306 109.609Z" fill="#E9BDA2"/>
<path d="M136.751 99.7178C136.765 100.68 136.204 101.265 135.634 101.274C135.064 101.282 134.483 100.521 134.472 99.7519C134.46 98.9825 135.018 98.2046 135.588 98.1961C136.158 98.1876 136.736 98.7561 136.751 99.7178Z" fill="#3E2624"/>
<path d="M151.715 96.9933C151.73 97.955 151.169 98.5406 150.599 98.5491C150.029 98.5576 149.448 97.7967 149.437 97.0273C149.422 96.0656 149.983 95.48 150.553 95.4715C151.123 95.463 151.704 96.2239 151.715 96.9933Z" fill="#3E2624"/>
<path d="M149.419 108.571C148.659 108.582 148.677 109.736 149.436 109.725C150.196 109.714 150.179 108.56 149.419 108.571Z" fill="#A55038"/>
<path opacity="0.4" d="M179.65 136.016C176.782 134.712 173.726 133.603 170.486 132.882L168.647 162.345C168.647 162.345 169.91 170.599 183.502 177.707C180.153 156.979 173.585 149.574 179.65 136.016Z" fill="#C46645"/>
<path d="M169.91 132.506C195.066 138.094 204.748 163.153 206.325 166.977C206.995 161.003 214.209 148.005 227.269 144.924C231.389 141.015 236.387 132.283 236.387 132.283L245.195 136.961L238.384 151.492C243.94 154.679 227.861 184.548 208.778 191.374C200.843 194.186 167.887 162.356 167.887 162.356L169.91 132.506Z" fill="#1B9EFF"/>
<path d="M247.181 219.081L248.511 308.138C245.283 308.186 242.054 308.234 239.013 308.087L238.823 308.09C236.354 308.127 234.078 308.353 231.61 308.39L230.28 219.334L247.181 219.081Z" fill="#1B9EFF"/>
<path d="M216.112 224.547L217.341 306.872C211.636 306.38 205.924 305.503 200.213 304.626L199.021 224.803L216.112 224.547Z" fill="#1B9EFF"/>
<path d="M276.659 196.132L278.294 305.577C272.611 306.623 266.923 307.286 261.232 307.755L259.568 196.387L276.659 196.132Z" fill="#1B9EFF"/>
<path d="M307.96 142.565L290.869 142.82L293.276 304.006L310.367 303.751L307.96 142.565Z" fill="#1B9EFF"/>
<path d="M315.125 100.902L318.076 298.441" stroke="#1B9EFF" stroke-miterlimit="10"/>
<path d="M235.891 213.478L259.586 184.843L268.218 190.486L290.757 135.319L300.442 135.174L306.634 117.382" stroke="#1B9EFF" stroke-width="0.5" stroke-miterlimit="10"/>
<path d="M308.076 112.166L303.99 118.383L308.568 119.661L308.076 112.166Z" fill="#1B9EFF"/>
<path d="M259.626 187.536C260.989 187.516 262.078 186.38 262.057 184.999C262.037 183.618 260.915 182.515 259.551 182.535C258.188 182.555 257.099 183.691 257.12 185.072C257.14 186.453 258.262 187.556 259.626 187.536Z" fill="#1B9EFF"/>
<path d="M279.966 163.184C281.33 163.163 282.418 162.027 282.398 160.646C282.377 159.265 281.255 158.162 279.892 158.183C278.528 158.203 277.44 159.339 277.46 160.72C277.481 162.101 278.603 163.204 279.966 163.184Z" fill="#1B9EFF"/>
<path d="M235.928 215.979C237.291 215.958 238.38 214.822 238.359 213.441C238.339 212.06 237.217 210.957 235.853 210.978C234.49 210.998 233.401 212.134 233.422 213.515C233.442 214.896 234.564 215.999 235.928 215.979Z" fill="#1B9EFF"/>
<path d="M207.549 223.521C208.912 223.501 210.001 222.365 209.98 220.984C209.96 219.603 208.838 218.5 207.474 218.52C206.111 218.54 205.022 219.676 205.043 221.057C205.064 222.438 206.186 223.541 207.549 223.521Z" fill="#1B9EFF"/>
<path d="M290.794 137.819C292.158 137.799 293.246 136.663 293.226 135.282C293.205 133.901 292.083 132.798 290.719 132.818C289.356 132.838 288.267 133.974 288.288 135.355C288.309 136.736 289.431 137.839 290.794 137.819Z" fill="#1B9EFF"/>
<path d="M300.479 137.674C301.843 137.654 302.931 136.518 302.911 135.137C302.89 133.756 301.768 132.653 300.405 132.673C299.041 132.694 297.953 133.83 297.973 135.211C297.994 136.592 299.116 137.695 300.479 137.674Z" fill="#1B9EFF"/>
<path d="M235.891 213.478L207.518 221.405" stroke="#1B9EFF" stroke-width="0.5" stroke-miterlimit="10"/>
<path d="M217.364 308.41L217.468 315.335L200.377 315.59L200.262 307.896C205.964 308.196 211.477 308.498 217.364 308.41Z" fill="#1B9EFF"/>
<path d="M248.511 308.138L248.537 309.869L231.446 310.124L231.42 308.393C233.889 308.356 236.167 308.322 238.633 308.093L238.823 308.09C242.054 308.234 245.283 308.186 248.511 308.138Z" fill="#1B9EFF"/>
<path d="M217.341 306.872L217.364 308.41C211.664 308.303 205.965 308.196 200.262 307.896L200.213 304.626C205.924 305.503 211.636 306.38 217.341 306.872Z" fill="#1B9EFF"/>
<path d="M200.213 304.626L200.262 307.896C139.243 304.767 91.5121 288.358 82.4578 267.138C86.8571 269.188 92.0218 271.612 98.1388 274.214C98.9272 276.126 100.277 277.453 102.377 278.191C103.139 278.372 103.89 277.784 104.449 277.006C109.61 279.237 115.342 281.46 121.453 283.678C121.468 284.64 121.485 285.794 121.499 286.755C131.233 289.881 140.961 292.621 150.491 294.788C150.482 294.21 150.666 293.823 150.658 293.246C155.238 294.717 160.006 295.992 164.963 297.265C164.969 297.65 165.162 297.839 165.168 298.224C170.502 299.298 175.837 300.373 180.785 301.069C180.785 301.069 180.785 301.069 180.975 301.066C187.265 302.511 193.742 303.761 200.213 304.626Z" fill="#1B9EFF"/>
<path d="M97.949 274.217C99.8624 275.15 101.963 275.889 104.256 276.816C103.701 277.786 103.137 278.18 102.184 278.002C100.087 277.456 98.7373 276.129 97.949 274.217Z" fill="#1B9EFF"/>
<path d="M121.45 283.485C130.427 286.814 140.164 290.132 150.468 293.249C150.476 293.826 150.292 294.213 150.301 294.79C140.768 292.432 131.04 289.691 121.309 286.758C121.292 285.604 121.468 284.64 121.45 283.485Z" fill="#1B9EFF"/>
<path d="M180.786 301.069C175.644 300.184 170.502 299.298 165.168 298.224C165.162 297.839 164.969 297.65 164.963 297.265C169.921 298.538 175.258 299.805 180.786 301.069Z" fill="#1B9EFF"/>
<path d="M238.826 308.282C236.357 308.319 234.081 308.545 231.613 308.582C230.663 308.597 229.714 308.611 228.764 308.625C224.966 308.682 221.168 308.738 217.557 308.6L217.531 306.869C222.287 307.375 227.041 307.689 231.794 308.002C233.886 308.164 236.354 308.127 238.826 308.282Z" fill="#1B9EFF"/>
<path d="M358.062 279.567C346.777 287.046 330.35 293.641 310.289 298.558L310.364 303.559L293.273 303.814L293.247 302.083C292.867 302.088 292.301 302.289 291.731 302.298C292.298 302.097 292.677 302.091 293.244 301.89C298.921 300.459 304.592 298.643 310.258 296.442C325.744 290.439 340.43 281.754 353.547 269.823L358.062 279.567Z" fill="#1B9EFF"/>
</g>
<defs>
<clipPath id="clip0">
<rect width="294" height="247" fill="white" transform="translate(78 70.3901) rotate(-0.855595)"/>
</clipPath>
</defs>
</svg>
