<?xml version="1.0" encoding="UTF-8"?>
<svg xmlns="http://www.w3.org/2000/svg" xmlns:xlink="http://www.w3.org/1999/xlink" version="1.1" id="Layer_1" x="0px" y="0px" viewBox="0 0 432 72" style="enable-background:new 0 0 432 72;" xml:space="preserve">
<style type="text/css">
	.st0{fill:#231F20;}
	.st1{fill:#83276B;}
	.st2{fill:none;}
</style>
<g id="Plum_Black">
	<path class="st0" d="M116.3,28.6h-8.4v20.8h-4.7V28.6h-7.5v-3.7h19.8L116.3,28.6z"></path>
	<path class="st0" d="M134.5,33.2c1,1.6,1.4,3.4,1.3,5.2v11h-4.7V38.6c0.1-0.9-0.2-1.8-0.7-2.5c-0.4-0.6-1.1-0.9-1.9-0.9   c-0.8,0-1.6,0.2-2.3,0.6c-0.8,0.4-1.6,0.9-2.4,1.5v12.1h-4.6v-25L124,24v9.3c1-0.6,2-1.1,3.1-1.4c0.9-0.3,1.9-0.5,2.9-0.5   C132.1,31.3,133.6,32,134.5,33.2z"></path>
	<path class="st0" d="M155.7,42h-11.8c0.2,1.1,0.7,2.1,1.6,2.8c1.1,0.7,2.4,1.1,3.7,1c0.9,0,1.8-0.1,2.6-0.4   c0.9-0.3,1.7-0.7,2.5-1.1l1.4,3.4c-0.9,0.7-1.8,1.2-2.9,1.6c-1.2,0.4-2.4,0.6-3.7,0.6c-3.3,0-5.8-0.8-7.6-2.4   c-1.8-1.8-2.7-4.2-2.6-6.7c0-1.7,0.3-3.3,1.1-4.9c0.7-1.3,1.7-2.5,3-3.2c1.4-0.8,3-1.2,4.7-1.1c1.6-0.1,3.1,0.4,4.4,1.2   c1.2,0.8,2.1,2,2.7,3.3c0.6,1.5,0.9,3,0.9,4.6L155.7,42z M144,38.9h7.3c-0.2-1-0.6-1.9-1.3-2.6c-0.6-0.6-1.5-0.9-2.4-0.9   c-0.9,0-1.8,0.3-2.4,0.9C144.6,37,144.1,37.9,144,38.9z"></path>
	<path class="st0" d="M179.3,24.9l9.5,24.2l-4.7,0.6l-2.2-6.1h-9.3l-2.2,5.8h-4.7l9.5-24.5L179.3,24.9z M177.2,31.3l-3.2,8.5h6.5   L177.2,31.3z"></path>
	<path class="st0" d="M190.5,48l1.4-3.2c1.4,0.7,3,1.1,4.6,1.2c0.7,0,1.4-0.1,2-0.4c0.6-0.3,0.9-0.6,0.9-1.1c0-0.9-1-1.7-3.1-2.3   c-1.5-0.5-2.9-1.2-4.1-2.1c-1-0.8-1.7-2-1.6-3.3c-0.1-1.5,0.6-3,1.8-3.9c1.5-1,3.2-1.5,5-1.4c1,0,2,0.2,3,0.5   c1.1,0.3,2.1,0.7,3,1.3l-1.4,3.1c-0.8-0.4-1.6-0.7-2.4-0.9c-0.7-0.2-1.5-0.3-2.2-0.3c-0.5,0-1.1,0.1-1.5,0.4   c-0.4,0.2-0.6,0.6-0.6,1.1c0,0.3,0.2,0.6,0.7,0.9c0.6,0.3,1.3,0.6,2,0.8c1.5,0.5,3,1.3,4.2,2.4c1.1,0.9,1.7,2.2,1.7,3.5   c0.1,1.6-0.6,3.1-1.9,4.1c-1.6,1-3.5,1.5-5.4,1.4c-1.1,0-2.1-0.2-3.1-0.5C192.4,49.1,191.4,48.6,190.5,48z"></path>
	<path class="st0" d="M209.3,29.4c-0.7,0-1.4-0.3-1.8-0.8c-1-1.1-1-2.7,0-3.8c0.5-0.5,1.2-0.8,1.8-0.8c0.7,0,1.4,0.3,1.9,0.8   c1,1,1,2.7,0,3.8C210.7,29.2,210,29.4,209.3,29.4z M207,49.4V31.9h4.7v17.5L207,49.4z"></path>
	<path class="st0" d="M217.7,36.9l-1.3-3.9c0.9-0.5,1.9-0.9,3-1.1c1.1-0.3,2.2-0.5,3.3-0.5c1.3,0,2.6,0.3,3.8,0.8   c1.1,0.5,2.1,1.3,2.8,2.3c0.7,1,1,2.1,1,3.3v11.5h-3.1l-0.8-1.9c-1.1,1.4-2.8,2.2-4.6,2.3c-1.7,0.1-3.4-0.4-4.7-1.5   c-1.1-1.1-1.7-2.6-1.6-4.1c-0.1-1.6,0.6-3.1,1.8-4.1c1.4-1,3.1-1.6,4.8-1.5h3.4c0-0.8-0.3-1.5-0.8-2.1c-0.5-0.5-1.3-0.8-2-0.7   c-0.9,0-1.8,0.1-2.6,0.3C219.3,36.3,218.5,36.5,217.7,36.9z M219.5,44.1c0,0.5,0.2,1,0.6,1.4c0.4,0.4,1,0.6,1.6,0.6   c1.5,0,2.9-0.7,3.9-1.7v-2.7h-3.5c-0.7,0-1.4,0.2-1.9,0.7C219.8,42.9,219.5,43.5,219.5,44.1z"></path>
	<path class="st0" d="M257,39h-8.4v10.4H244V24.9h13.9l0.7,3.7h-9.9v6.8h7.7L257,39z"></path>
	<path class="st0" d="M277.7,45.4c-0.7,1.4-1.9,2.5-3.3,3.2c-3.1,1.5-6.7,1.5-9.8,0c-1.4-0.7-2.5-1.8-3.3-3.2   c-1.5-3.1-1.5-6.6,0-9.7c0.7-1.4,1.9-2.5,3.3-3.2c3.1-1.5,6.7-1.5,9.8,0c1.4,0.7,2.5,1.8,3.3,3.2C279.2,38.8,279.2,42.4,277.7,45.4   z M272.7,44.3c0.9-1.1,1.3-2.4,1.3-3.8c0.1-1.3-0.4-2.7-1.3-3.7c-1.6-1.8-4.3-2-6.1-0.4c-0.1,0.1-0.3,0.2-0.4,0.4   c-0.9,1-1.3,2.4-1.3,3.8c-0.1,1.3,0.4,2.7,1.3,3.7c1.6,1.8,4.3,2,6.1,0.4C272.4,44.6,272.5,44.5,272.7,44.3z"></path>
	<path class="st0" d="M293.8,31.9h4.7v17.5h-3.1l-0.8-1.9c-1.1,0.8-2.2,1.4-3.5,1.8c-1.1,0.4-2.2,0.6-3.3,0.6   c-2.2,0-3.8-0.6-4.6-1.9c-1-1.6-1.4-3.4-1.3-5.2V31.9h4.7v10.7c-0.1,0.9,0.2,1.8,0.7,2.5c0.4,0.6,1.1,0.9,1.9,0.9   c0.8,0,1.6-0.2,2.3-0.6c0.8-0.4,1.6-0.9,2.4-1.5L293.8,31.9z"></path>
	<path class="st0" d="M307.5,49.4h-4.7V31.9h3.1l0.8,1.9c1.1-0.8,2.2-1.4,3.5-1.8c1-0.4,2.2-0.6,3.3-0.7c2.2,0,3.8,0.6,4.6,1.9   c1,1.6,1.4,3.4,1.3,5.2v11h-4.7V38.6c0.1-0.9-0.2-1.8-0.7-2.5c-0.4-0.6-1.1-0.9-1.9-0.9c-0.8,0-1.6,0.2-2.3,0.6   c-0.8,0.4-1.6,0.9-2.4,1.5L307.5,49.4z"></path>
	<path class="st0" d="M339.8,23.9v25.4h-2.5l-1.1-1.6c-1.4,1.3-3.1,2-5,2c-2.4,0.1-4.7-0.8-6.4-2.5c-1.6-1.8-2.5-4.2-2.4-6.7   c0-1.7,0.3-3.3,1.1-4.8c0.7-1.4,1.8-2.5,3.1-3.2c1.5-0.8,3.1-1.2,4.8-1.1c0.6,0,1.2,0.1,1.8,0.3c0.7,0.2,1.3,0.5,1.9,0.8v-8.2   L339.8,23.9z M328.4,44.4c0.7,0.9,1.8,1.5,3,1.4c0.6,0,1.2-0.1,1.8-0.4c0.7-0.3,1.3-0.6,1.9-1.1v-7.4c-0.5-0.5-1.1-0.9-1.8-1.1   c-0.6-0.2-1.2-0.3-1.9-0.3c-1.2,0-2.3,0.5-3,1.4c-0.8,1.1-1.2,2.4-1.1,3.8C327.2,42,327.6,43.3,328.4,44.4L328.4,44.4z"></path>
	<path class="st0" d="M345.4,36.9l-1.3-3.9c0.9-0.5,1.9-0.9,3-1.1c1.1-0.3,2.2-0.5,3.3-0.5c1.3,0,2.6,0.3,3.8,0.8   c1.1,0.5,2.1,1.3,2.8,2.3c0.7,1,1,2.1,1,3.3v11.5h-3l-0.8-1.9c-1.1,1.4-2.8,2.2-4.6,2.3c-1.7,0.1-3.4-0.4-4.7-1.5   c-1.1-1.1-1.7-2.6-1.6-4.1c-0.1-1.6,0.6-3.1,1.8-4.1c1.4-1,3.1-1.6,4.8-1.5h3.4c0-0.8-0.3-1.5-0.8-2.1c-0.5-0.5-1.3-0.8-2-0.7   c-0.9,0-1.8,0.1-2.6,0.3C347.1,36.3,346.2,36.5,345.4,36.9z M347.3,44.1c0,0.5,0.2,1,0.6,1.4c0.4,0.4,1,0.6,1.6,0.6   c1.5,0,2.9-0.7,3.9-1.7v-2.7h-3.5c-0.7,0-1.4,0.2-1.9,0.7C347.5,42.9,347.3,43.5,347.3,44.1z"></path>
	<path class="st0" d="M370.8,31.9l1.4,3.6h-4.6V43c0,0.8,0.2,1.6,0.7,2.3c0.5,0.6,1.2,0.9,1.9,0.9c0.7,0,1.3-0.2,1.9-0.5l1.4,3.4   c-0.5,0.3-1,0.6-1.6,0.8c-0.6,0.2-1.3,0.3-1.9,0.3c-1.9,0.1-3.7-0.5-5.1-1.7c-1.3-1.2-1.9-2.9-1.8-4.6v-8.2h-2.3V32h2.3v-4.1   l4.6-0.8v5L370.8,31.9z"></path>
	<path class="st0" d="M378.6,29.4c-0.7,0-1.4-0.3-1.8-0.8c-1-1.1-1-2.7,0-3.8c0.5-0.5,1.2-0.8,1.8-0.8c0.7,0,1.4,0.3,1.9,0.8   c1,1,1,2.7,0,3.8C380,29.2,379.3,29.4,378.6,29.4z M376.3,49.4V31.9h4.7v17.5L376.3,49.4z"></path>
	<path class="st0" d="M401.7,45.4c-0.7,1.4-1.9,2.5-3.3,3.2c-3.1,1.5-6.7,1.5-9.8,0c-1.4-0.7-2.5-1.8-3.2-3.2c-1.5-3-1.5-6.7,0-9.7   c0.7-1.4,1.9-2.5,3.2-3.2c3.1-1.5,6.7-1.5,9.8,0c1.4,0.7,2.5,1.8,3.3,3.2C403.2,38.8,403.2,42.4,401.7,45.4z M396.8,44.3   c0.9-1,1.3-2.4,1.3-3.8c0.1-1.3-0.4-2.7-1.3-3.7c-1.6-1.8-4.3-2-6.1-0.4c-0.1,0.1-0.3,0.2-0.4,0.4c-0.9,1-1.3,2.4-1.3,3.8   c-0.1,1.3,0.4,2.7,1.3,3.7c1.6,1.8,4.3,2,6.1,0.4C396.5,44.6,396.6,44.5,396.8,44.3z"></path>
	<path class="st0" d="M410.8,49.4h-4.7V31.9h3.1l0.8,1.9c1.1-0.8,2.2-1.4,3.5-1.8c1-0.4,2.2-0.6,3.3-0.7c2.2,0,3.8,0.6,4.6,1.9   c1,1.6,1.4,3.4,1.3,5.2v11H418V38.6c0.1-0.9-0.2-1.8-0.7-2.5c-0.4-0.6-1.1-0.9-1.9-0.9c-0.8,0-1.6,0.2-2.3,0.6   c-0.8,0.4-1.6,0.9-2.4,1.5L410.8,49.4z"></path>
	<path class="st1" d="M37.6,68.2C34.9,66.6,23.9,59,33,43.4l0,0c1.2-2.1,1.8-4.4,1.8-6.8c0-7.5-6.1-13.6-13.6-13.6   c-3.8,0-7.4,1.5-9.9,4.3l0,0C0.3,39,8,70.8,37.5,68.7C38.6,68.6,37.9,68.3,37.6,68.2z"></path>
	<path class="st1" d="M66.1,23.6c0,3.2-1,16.5-19.1,16.5l0,0c-7.5,0-13.6,6.1-13.6,13.6c0,2.4,0.6,4.7,1.9,6.8   c1.9,3.2,5,5.6,8.7,6.4l0,0c15.7,3.6,39.3-19.1,22.6-43.5C66,22.5,66.1,23.3,66.1,23.6z"></path>
	<path class="st1" d="M13.2,21.5c2.7-1.6,14.8-7.5,23.9,8.1l0,0c3.8,6.5,12.1,8.6,18.6,4.8c2.1-1.2,3.8-2.9,4.9-5   C62.9,26,63.4,21.8,62,18C56.9,1.5,25.5-4.3,12.9,21.1C12.4,22.1,13,21.6,13.2,21.5z"></path>
</g>
<g id="FRAME">
	<rect x="-72" y="-108" class="st2" width="576" height="288"></rect>
</g>
</svg>
