<svg width="82" height="66" viewBox="0 0 82 66" fill="none" xmlns="http://www.w3.org/2000/svg">
<path d="M71 33C71 51.2254 74.5 63 35.5 63C15.8939 63 0 51.2254 0 33C0 14.7746 15.8939 0 35.5 0C55.1061 0 71 14.7746 71 33Z" fill="#1B9EFF"/>
<path d="M29.8594 41.3516H25.3594V46H23.0156V34.625H30.4219V36.5234H25.3594V39.4609H29.8594V41.3516ZM36.2656 46C36.1615 45.7969 36.0859 45.5443 36.0391 45.2422C35.4922 45.8516 34.7812 46.1562 33.9062 46.1562C33.0781 46.1562 32.3906 45.9167 31.8438 45.4375C31.3021 44.9583 31.0312 44.3542 31.0312 43.625C31.0312 42.7292 31.362 42.0417 32.0234 41.5625C32.6901 41.0833 33.651 40.8411 34.9062 40.8359H35.9453V40.3516C35.9453 39.9609 35.8438 39.6484 35.6406 39.4141C35.4427 39.1797 35.1276 39.0625 34.6953 39.0625C34.3151 39.0625 34.0156 39.1536 33.7969 39.3359C33.5833 39.5182 33.4766 39.7682 33.4766 40.0859H31.2188C31.2188 39.5964 31.3698 39.1432 31.6719 38.7266C31.974 38.3099 32.401 37.9844 32.9531 37.75C33.5052 37.5104 34.125 37.3906 34.8125 37.3906C35.8542 37.3906 36.6797 37.6536 37.2891 38.1797C37.9036 38.7005 38.2109 39.4349 38.2109 40.3828V44.0469C38.2161 44.849 38.3281 45.4557 38.5469 45.8672V46H36.2656ZM34.3984 44.4297C34.7318 44.4297 35.0391 44.3568 35.3203 44.2109C35.6016 44.0599 35.8099 43.8594 35.9453 43.6094V42.1562H35.1016C33.9714 42.1562 33.3698 42.5469 33.2969 43.3281L33.2891 43.4609C33.2891 43.7422 33.388 43.974 33.5859 44.1562C33.7839 44.3385 34.0547 44.4297 34.3984 44.4297ZM43.4609 44.3359C43.8776 44.3359 44.2161 44.2214 44.4766 43.9922C44.737 43.763 44.8724 43.4583 44.8828 43.0781H47C46.9948 43.651 46.8385 44.1771 46.5312 44.6562C46.224 45.1302 45.8021 45.5 45.2656 45.7656C44.7344 46.026 44.1458 46.1562 43.5 46.1562C42.2917 46.1562 41.3385 45.7734 40.6406 45.0078C39.9427 44.237 39.5938 43.1745 39.5938 41.8203V41.6719C39.5938 40.3698 39.9401 39.3307 40.6328 38.5547C41.3255 37.7786 42.276 37.3906 43.4844 37.3906C44.5417 37.3906 45.388 37.6927 46.0234 38.2969C46.6641 38.8958 46.9896 39.6953 47 40.6953H44.8828C44.8724 40.2578 44.737 39.9036 44.4766 39.6328C44.2161 39.3568 43.8724 39.2188 43.4453 39.2188C42.9193 39.2188 42.5208 39.4115 42.25 39.7969C41.9844 40.1771 41.8516 40.7969 41.8516 41.6562V41.8906C41.8516 42.7604 41.9844 43.3854 42.25 43.7656C42.5156 44.1458 42.9193 44.3359 43.4609 44.3359ZM50.9922 35.4688V37.5469H52.4375V39.2031H50.9922V43.4219C50.9922 43.7344 51.0521 43.9583 51.1719 44.0938C51.2917 44.2292 51.5208 44.2969 51.8594 44.2969C52.1094 44.2969 52.3307 44.2786 52.5234 44.2422V45.9531C52.0807 46.0885 51.625 46.1562 51.1562 46.1562C49.5729 46.1562 48.7656 45.3568 48.7344 43.7578V39.2031H47.5V37.5469H48.7344V35.4688H50.9922ZM58.2734 43.6641C58.2734 43.388 58.1354 43.1719 57.8594 43.0156C57.5885 42.8542 57.151 42.7109 56.5469 42.5859C54.5365 42.1641 53.5312 41.3099 53.5312 40.0234C53.5312 39.2734 53.8411 38.6484 54.4609 38.1484C55.0859 37.6432 55.901 37.3906 56.9062 37.3906C57.9792 37.3906 58.8359 37.6432 59.4766 38.1484C60.1224 38.6536 60.4453 39.3099 60.4453 40.1172H58.1875C58.1875 39.7943 58.0833 39.5286 57.875 39.3203C57.6667 39.1068 57.3411 39 56.8984 39C56.5182 39 56.224 39.0859 56.0156 39.2578C55.8073 39.4297 55.7031 39.6484 55.7031 39.9141C55.7031 40.1641 55.8203 40.3672 56.0547 40.5234C56.2943 40.6745 56.6953 40.8073 57.2578 40.9219C57.8203 41.0312 58.2943 41.1562 58.6797 41.2969C59.8724 41.7344 60.4688 42.4922 60.4688 43.5703C60.4688 44.3411 60.138 44.9661 59.4766 45.4453C58.8151 45.9193 57.9609 46.1562 56.9141 46.1562C56.2057 46.1562 55.5755 46.0312 55.0234 45.7812C54.4766 45.526 54.0469 45.1797 53.7344 44.7422C53.4219 44.2995 53.2656 43.8229 53.2656 43.3125H55.4062C55.4271 43.7135 55.5755 44.0208 55.8516 44.2344C56.1276 44.4479 56.4974 44.5547 56.9609 44.5547C57.3932 44.5547 57.7188 44.474 57.9375 44.3125C58.1615 44.1458 58.2734 43.9297 58.2734 43.6641Z" fill="white"/>
<path d="M20.3438 23.5703C20.3438 24.6328 20.1719 25.5573 19.8281 26.3438C19.4844 27.125 19.0078 27.7526 18.3984 28.2266L20.2891 29.7109L18.7969 31.0312L16.375 29.0859C16.099 29.1328 15.8125 29.1562 15.5156 29.1562C14.5729 29.1562 13.7318 28.9297 12.9922 28.4766C12.2526 28.0234 11.6797 27.3776 11.2734 26.5391C10.8672 25.6953 10.6615 24.7266 10.6562 23.6328V23.0703C10.6562 21.9505 10.8568 20.9661 11.2578 20.1172C11.6641 19.263 12.2344 18.6094 12.9688 18.1562C13.7083 17.6979 14.5521 17.4688 15.5 17.4688C16.4479 17.4688 17.2891 17.6979 18.0234 18.1562C18.763 18.6094 19.3333 19.263 19.7344 20.1172C20.1406 20.9661 20.3438 21.9479 20.3438 23.0625V23.5703ZM17.9688 23.0547C17.9688 21.862 17.7552 20.9557 17.3281 20.3359C16.901 19.7161 16.2917 19.4062 15.5 19.4062C14.7135 19.4062 14.1068 19.7135 13.6797 20.3281C13.2526 20.9375 13.0365 21.8333 13.0312 23.0156V23.5703C13.0312 24.7318 13.2448 25.6328 13.6719 26.2734C14.099 26.9141 14.7135 27.2344 15.5156 27.2344C16.3021 27.2344 16.9062 26.9271 17.3281 26.3125C17.75 25.6927 17.9635 24.7917 17.9688 23.6094V23.0547ZM26.9766 28.1406C26.4193 28.8177 25.6484 29.1562 24.6641 29.1562C23.7578 29.1562 23.0651 28.8958 22.5859 28.375C22.112 27.8542 21.8698 27.0911 21.8594 26.0859V20.5469H24.1172V26.0078C24.1172 26.888 24.5182 27.3281 25.3203 27.3281C26.0859 27.3281 26.612 27.0625 26.8984 26.5312V20.5469H29.1641V29H27.0391L26.9766 28.1406ZM33.25 29H30.9844V20.5469H33.25V29ZM30.8516 18.3594C30.8516 18.0208 30.9635 17.7422 31.1875 17.5234C31.4167 17.3047 31.7266 17.1953 32.1172 17.1953C32.5026 17.1953 32.8099 17.3047 33.0391 17.5234C33.2682 17.7422 33.3828 18.0208 33.3828 18.3594C33.3828 18.7031 33.2656 18.9844 33.0312 19.2031C32.8021 19.4219 32.4974 19.5312 32.1172 19.5312C31.737 19.5312 31.4297 19.4219 31.1953 19.2031C30.9661 18.9844 30.8516 18.7031 30.8516 18.3594ZM38.6328 27.3359C39.0495 27.3359 39.388 27.2214 39.6484 26.9922C39.9089 26.763 40.0443 26.4583 40.0547 26.0781H42.1719C42.1667 26.651 42.0104 27.1771 41.7031 27.6562C41.3958 28.1302 40.974 28.5 40.4375 28.7656C39.9062 29.026 39.3177 29.1562 38.6719 29.1562C37.4635 29.1562 36.5104 28.7734 35.8125 28.0078C35.1146 27.237 34.7656 26.1745 34.7656 24.8203V24.6719C34.7656 23.3698 35.112 22.3307 35.8047 21.5547C36.4974 20.7786 37.4479 20.3906 38.6562 20.3906C39.7135 20.3906 40.5599 20.6927 41.1953 21.2969C41.8359 21.8958 42.1615 22.6953 42.1719 23.6953H40.0547C40.0443 23.2578 39.9089 22.9036 39.6484 22.6328C39.388 22.3568 39.0443 22.2188 38.6172 22.2188C38.0911 22.2188 37.6927 22.4115 37.4219 22.7969C37.1562 23.1771 37.0234 23.7969 37.0234 24.6562V24.8906C37.0234 25.7604 37.1562 26.3854 37.4219 26.7656C37.6875 27.1458 38.0911 27.3359 38.6328 27.3359ZM46.5312 25.6094L45.7188 26.4219V29H43.4609V17H45.7188V23.6484L46.1562 23.0859L48.3203 20.5469H51.0312L47.9766 24.0703L51.2969 29H48.7031L46.5312 25.6094Z" fill="white"/>
<ellipse cx="71.5" cy="56" rx="10.5" ry="10" fill="#FCCA35"/>
</svg>
