<svg width="365" height="262" viewBox="0 0 365 262" fill="none" xmlns="http://www.w3.org/2000/svg">
<g clip-path="url(#clip0)">
<path opacity="0.15" d="M311.901 218.94C311.901 225.486 307.1 231.596 298.808 236.978C290.08 242.506 277.423 247.307 262.003 250.798C257.929 251.817 253.565 252.544 248.91 253.417C248.619 253.417 248.183 253.563 247.746 253.563C244.4 254.144 240.909 254.581 237.417 255.017C233.198 255.599 228.834 256.036 224.324 256.327C221.124 256.617 217.778 256.763 214.432 256.908C211.959 257.054 209.486 257.054 207.158 257.199H207.013C205.122 257.199 203.376 257.345 201.485 257.345C200.757 257.345 200.03 257.345 199.302 257.345C196.393 257.345 193.483 257.345 190.719 257.199V256.036C186.355 255.599 181.991 254.872 177.627 254.144C172.535 253.272 167.589 252.253 162.788 251.235H162.642C158.715 250.508 154.787 249.78 150.713 248.907C150.713 248.616 150.568 248.471 150.568 248.18C146.786 247.162 143.149 246.143 139.657 244.979C139.657 245.416 139.512 245.707 139.512 246.143C132.238 244.252 124.819 242.07 117.399 239.742C117.399 239.015 117.399 238.142 117.399 237.415C112.744 235.669 108.38 233.923 104.452 232.178C104.016 232.905 103.579 233.196 102.852 233.051C101.251 232.469 100.233 231.45 99.6512 229.996C94.996 227.959 91.0681 226.068 87.7222 224.468C86.9948 222.722 86.5583 220.831 86.5583 218.94C86.5583 212.83 90.7772 207.011 98.3419 201.919C102.706 198.864 108.38 196.1 114.926 193.627C115.363 193.481 115.945 193.19 116.381 193.045C116.526 193.045 116.672 192.9 116.672 192.9C116.672 192.9 116.817 192.9 116.817 192.754C117.399 192.609 117.836 192.318 118.418 192.172C120.309 191.445 122.346 190.863 124.382 190.281C137.039 186.499 152.168 183.589 168.898 181.989C178.499 181.116 188.683 180.534 199.157 180.534C207.74 180.534 216.178 180.825 224.324 181.552C228.834 181.843 233.053 182.28 237.417 182.862C241.345 183.298 245.128 183.88 248.764 184.462C253.274 185.189 257.638 186.062 261.857 187.081C292.116 193.918 311.901 205.701 311.901 218.94Z" fill="#1B9EFF"/>
<path d="M365 131.073C365 203.374 302.882 262.145 226.361 262.145C149.841 262.145 9.16504 203.374 9.16504 131.073C9.16504 58.7718 149.695 0 226.361 0C303.027 0 365 58.6263 365 131.073Z" fill="#FCCA35"/>
<path d="M355.835 131.073C355.835 186.062 316.556 232.614 262.003 249.489C257.784 250.798 253.42 251.962 248.91 252.835C245.128 253.562 241.345 254.29 237.563 254.872C233.344 255.454 228.98 255.89 224.615 256.036C222.142 256.181 219.669 256.181 217.196 256.181C216.323 256.181 215.596 256.181 214.723 256.181C210.504 256.181 206.14 255.89 201.63 255.454C198.139 255.163 194.502 254.726 190.719 254.29C186.501 253.708 182.136 253.126 177.627 252.253C175.735 251.962 173.844 251.526 171.953 251.235C164.97 249.926 157.987 248.18 150.859 246.289C147.222 245.27 143.44 244.252 139.657 243.088C132.238 240.906 124.819 238.433 117.545 235.669C56.5903 213.557 0 174.861 0 131.073C0 61.9722 140.53 5.819 217.051 5.819C293.717 5.819 355.835 61.9722 355.835 131.073Z" fill="white"/>
<path d="M172.098 251.235C165.115 249.926 158.133 248.18 151.004 246.289C150.859 243.816 150.859 242.215 150.859 242.215C148.095 229.559 144.749 215.884 143.003 215.157C142.567 215.303 141.403 225.34 139.948 239.015C139.948 239.306 139.948 241.488 139.948 243.234C132.529 241.052 125.11 238.579 117.836 235.815C117.836 234.214 117.836 231.887 117.836 231.305C117.981 219.23 118.127 207.883 118.418 199.3C118.563 193.772 118.709 189.263 119 186.353C119.145 184.753 119.29 183.735 119.29 183.153C119.29 183.153 121.327 183.88 124.819 184.462C132.674 185.917 148.095 187.08 166.279 179.661C166.716 184.171 167.298 189.699 167.88 195.809C168.752 207.592 170.498 232.614 172.098 251.235Z" fill="#D8C5BC"/>
<path d="M115.363 144.165C111.871 134.71 108.816 114.78 113.181 102.56C117.69 90.1943 121.909 69.6824 129.474 74.6285C134.129 69.5369 143.294 66.4819 149.404 75.7923C158.715 89.9034 172.535 101.541 160.169 135.728C147.804 169.914 115.363 144.165 115.363 144.165Z" fill="#1F74B1"/>
<path d="M107.652 221.558C106.634 221.558 106.198 216.757 105.907 215.739C106.052 217.63 105.907 223.74 104.452 226.213C104.016 226.941 103.579 227.232 102.852 227.086C101.251 226.504 100.233 225.486 99.6512 224.031C98.051 220.249 99.3603 214.43 100.233 211.811C100.379 211.229 100.524 210.938 100.67 210.647L106.343 209.629C106.343 209.629 106.634 210.647 106.78 212.102C107.507 215.448 108.38 220.685 107.652 221.558Z" fill="#E9BDA2"/>
<path d="M117.108 123.944C110.853 130.054 87.5767 164.386 100.088 201.337C100.524 208.174 99.3602 211.666 99.3602 211.666C104.743 212.83 107.943 212.102 107.943 212.102C109.107 208.32 109.107 200.319 109.107 200.319C117.254 194.645 123.8 167.878 123.509 153.039C122.927 138.056 117.108 123.944 117.108 123.944Z" fill="#1A9EFE"/>
<path d="M126.273 117.398C129.474 116.525 132.674 114.925 132.674 114.925C133.402 112.888 133.838 107.651 133.692 104.014C138.639 101.978 141.548 102.996 141.548 102.996C141.694 108.088 142.276 113.907 142.857 114.052C144.312 114.489 149.84 115.798 149.84 115.798L144.167 125.254L127.582 124.381L126.273 117.398Z" fill="#E9BDA2"/>
<path opacity="0.4" d="M121.618 153.767C121.327 140.529 117.399 127.872 116.672 125.69C111.726 138.492 114.635 175.443 115.217 191.008C119.291 180.389 121.909 164.241 121.618 153.767Z" fill="#C46645"/>
<path d="M211.668 121.18C213.268 119.871 221.706 110.27 216.469 105.469C213.996 103.869 209.922 112.306 209.049 114.634C209.195 113.47 210.795 109.106 209.922 108.67C208.468 109.397 206.14 119.871 206.14 119.871L211.668 121.18Z" fill="#E9BDA2"/>
<path d="M133.547 110.27C134.711 110.997 135.875 111.434 137.039 111.288C138.639 110.997 140.384 110.27 141.985 109.106C141.839 107.215 141.694 105.033 141.548 102.851C141.548 102.851 138.784 101.832 133.693 103.869C133.838 105.906 133.693 108.233 133.547 110.27Z" fill="#E9BDA2"/>
<path d="M125.982 84.5208C125.982 89.6124 126.273 95.8678 127.001 98.9228C127.728 102.123 132.82 109.542 137.039 108.961C141.257 108.379 146.931 104.16 147.658 94.5586C148.386 84.9572 145.767 80.593 145.767 80.593C145.767 80.593 127.292 76.9561 125.982 84.5208Z" fill="#E9BDA2"/>
<path d="M129.619 115.943C132.965 118.271 142.276 118.271 145.622 114.489C152.75 115.216 157.696 117.98 159.733 119.435C161.769 120.889 173.699 183.589 167.879 195.373C162.06 207.156 117.836 207.156 117.836 197.991C117.836 188.826 109.98 137.328 116.817 123.944C119.872 117.835 129.619 115.943 129.619 115.943Z" fill="#1B9EFF"/>
<path d="M126.273 91.7946C125.546 90.4853 123.655 92.9584 124.673 95.286C125.691 97.6136 127.292 98.3409 127.292 98.3409L126.273 91.7946Z" fill="#E9BDA2"/>
<path d="M128.892 79.1382C133.838 81.6113 142.421 80.8839 146.494 87.8667C150.568 94.704 150.422 107.215 150.422 107.215L159.587 90.4853L147.076 77.1016L128.892 79.1382Z" fill="#1F74B1"/>
<path d="M147.658 91.2126C148.386 89.9034 150.277 92.3764 149.258 94.704C148.24 97.0316 146.64 97.759 146.64 97.759L147.658 91.2126Z" fill="#E9BDA2"/>
<path d="M133.983 102.851C134.565 103.433 135.875 104.742 137.62 104.742C139.366 104.742 140.966 102.996 140.966 101.832C138.639 102.56 135.729 103.287 133.983 102.851Z" fill="#BA2B00"/>
<path d="M137.766 89.9034L138.057 89.176C138.348 88.8851 138.639 88.5941 138.93 88.3032C139.657 87.7213 140.385 87.2848 141.258 86.9939C142.421 86.5575 143.44 86.7029 144.313 87.5758C144.458 87.7213 145.04 88.3032 144.458 88.0122C143.731 87.7213 142.712 87.2848 141.985 87.5758C141.112 87.8667 140.239 88.3032 139.366 88.7396C138.93 88.8851 138.639 89.176 138.203 89.467C138.203 89.6124 137.912 89.9034 137.766 89.9034Z" fill="#3E2624"/>
<path d="M133.402 90.4853C133.402 90.4853 132.82 90.0489 132.82 89.9034C132.529 89.6124 132.092 89.467 131.656 89.3215C130.783 89.0305 129.91 88.8851 129.037 88.8851C127.873 88.8851 127.001 89.467 126.419 90.4853C126.273 90.7762 125.982 91.3581 126.419 90.9217C127.001 90.3398 127.728 89.7579 128.601 89.6124C129.474 89.6124 130.492 89.7579 131.51 89.7579C131.947 89.7579 132.383 89.9034 132.82 90.0489C132.965 90.3398 133.402 90.6308 133.402 90.4853Z" fill="#3E2624"/>
<path d="M137.039 100.087C136.602 100.087 135.875 99.9412 135.584 99.0683C135.293 98.3409 135.293 96.5952 135.293 94.995C135.293 93.9767 135.293 93.1038 135.293 92.6674C135.293 92.5219 135.438 92.3765 135.584 92.3765C135.729 92.3765 135.875 92.5219 135.875 92.6674C136.02 93.1038 136.02 93.9767 136.02 95.1405C136.02 96.5952 136.02 98.3409 136.311 98.9228C136.602 99.7957 137.475 99.5047 137.475 99.5047C137.621 99.5047 137.766 99.5047 137.912 99.6502C137.912 99.7957 137.912 99.9411 137.766 99.9411C137.33 100.087 137.184 100.087 137.039 100.087Z" fill="#E9BDA2"/>
<path d="M131.365 92.5219C131.365 93.2493 130.928 93.6857 130.492 93.6857C130.056 93.6857 129.619 93.1038 129.619 92.5219C129.619 91.7945 130.056 91.3581 130.492 91.3581C131.074 91.3581 131.365 91.94 131.365 92.5219Z" fill="#3E2624"/>
<path d="M142.858 90.7762C142.858 91.5036 142.421 91.94 141.985 91.94C141.548 91.94 141.112 91.3581 141.112 90.7762C141.112 90.0489 141.548 89.6124 141.985 89.6124C142.567 89.467 142.858 90.0489 142.858 90.7762Z" fill="#3E2624"/>
<path d="M140.966 99.3593C140.385 99.3593 140.385 100.232 140.966 100.232C141.548 100.232 141.548 99.3593 140.966 99.3593Z" fill="#A55038"/>
<path opacity="0.4" d="M163.806 120.453C161.624 119.435 159.296 118.562 156.823 117.98L155.223 140.238C155.223 140.238 156.096 146.493 166.425 152.021C163.952 136.31 159.151 130.782 163.806 120.453Z" fill="#C46645"/>
<path d="M156.387 117.689C175.735 122.199 182.718 141.11 183.882 144.02C184.464 139.51 190.138 129.763 200.175 127.581C203.376 124.672 207.304 118.125 207.304 118.125L213.996 121.762L208.613 132.673C212.832 135.146 200.175 157.549 185.482 162.495C179.372 164.532 154.496 140.092 154.496 140.092L156.387 117.689Z" fill="#1B9EFF"/>
<path d="M214.577 189.845V256.036C210.359 256.036 205.994 255.745 201.485 255.308V189.699H214.577V189.845Z" fill="#1B9EFF"/>
<path d="M190.72 193.627V254.29C186.501 253.708 182.136 253.126 177.627 252.253V193.627H190.72Z" fill="#1B9EFF"/>
<path d="M237.563 172.824V254.872C233.344 255.454 228.98 255.89 224.615 256.036V172.824H237.563Z" fill="#1B9EFF"/>
<path d="M262.003 132.818V249.489C257.784 250.798 253.42 251.962 248.91 252.835V132.818H262.003Z" fill="#1B9EFF"/>
<path d="M267.967 101.25V247.889" stroke="#1B9EFF" stroke-miterlimit="10"/>
<path d="M206.14 185.48L224.615 164.241L231.016 168.605L248.91 126.999H256.329L261.421 113.616" stroke="#1B9EFF" stroke-width="0.5" stroke-miterlimit="10"/>
<path d="M224.615 166.132C225.66 166.132 226.507 165.285 226.507 164.241C226.507 163.197 225.66 162.35 224.615 162.35C223.571 162.35 222.724 163.197 222.724 164.241C222.724 165.285 223.571 166.132 224.615 166.132Z" fill="#1B9EFF"/>
<path d="M240.472 147.948C241.517 147.948 242.363 147.101 242.363 146.057C242.363 145.012 241.517 144.165 240.472 144.165C239.428 144.165 238.581 145.012 238.581 146.057C238.581 147.101 239.428 147.948 240.472 147.948Z" fill="#1B9EFF"/>
<path d="M206.14 187.371C207.184 187.371 208.031 186.525 208.031 185.48C208.031 184.436 207.184 183.589 206.14 183.589C205.095 183.589 204.249 184.436 204.249 185.48C204.249 186.525 205.095 187.371 206.14 187.371Z" fill="#1B9EFF"/>
<path d="M184.318 192.754C185.363 192.754 186.21 191.907 186.21 190.863C186.21 189.818 185.363 188.972 184.318 188.972C183.274 188.972 182.427 189.818 182.427 190.863C182.427 191.907 183.274 192.754 184.318 192.754Z" fill="#1B9EFF"/>
<path d="M248.91 128.891C249.955 128.891 250.801 128.044 250.801 126.999C250.801 125.955 249.955 125.108 248.91 125.108C247.866 125.108 247.019 125.955 247.019 126.999C247.019 128.044 247.866 128.891 248.91 128.891Z" fill="#1B9EFF"/>
<path d="M256.329 128.891C257.374 128.891 258.22 128.044 258.22 126.999C258.22 125.955 257.374 125.108 256.329 125.108C255.285 125.108 254.438 125.955 254.438 126.999C254.438 128.044 255.285 128.891 256.329 128.891Z" fill="#1B9EFF"/>
<path d="M206.14 185.48L184.318 191.154" stroke="#1B9EFF" stroke-width="0.5" stroke-miterlimit="10"/>
</g>
<defs>
<clipPath id="clip0">
<rect width="365" height="262" fill="white"/>
</clipPath>
</defs>
</svg>

